<?xml version="1.0" standalone="no"?>
<!DOCTYPE svg PUBLIC "-//W3C//DTD SVG 20010904//EN"
 "http://www.w3.org/TR/2001/REC-SVG-20010904/DTD/svg10.dtd">
<svg version="1.0" xmlns="http://www.w3.org/2000/svg"
 width="700.000000pt" height="700.000000pt" viewBox="0 0 700.000000 700.000000"
 preserveAspectRatio="xMidYMid meet">
<metadata>
Created by potrace 1.11, written by Peter Selinger 2001-2013
</metadata>
<g transform="translate(0.000000,700.000000) scale(0.100000,-0.100000)"
fill="#000000" stroke="none">
<path d="M2578 5385 c-2 -1 -46 -6 -98 -9 -97 -8 -111 -9 -190 -21 -269 -39
-426 -82 -585 -161 -167 -83 -318 -218 -349 -311 -36 -111 27 -247 159 -342
45 -33 154 -91 170 -91 3 0 -14 21 -39 47 -109 112 -120 230 -31 338 37 45
169 135 257 174 146 67 385 129 568 148 97 10 470 10 580 0 425 -41 791 -196
880 -374 50 -99 31 -187 -63 -289 -27 -30 -47 -54 -45 -54 2 0 24 10 49 21
177 86 289 217 294 345 2 44 -3 67 -26 112 -31 62 -99 138 -164 182 -54 37
-233 122 -323 154 -148 52 -394 105 -572 121 -71 7 -466 15 -472 10z"/>
<path d="M2672 4820 c-97 -26 -166 -64 -224 -124 -60 -62 -82 -108 -82 -171
-1 -45 13 -79 137 -325 76 -151 171 -338 211 -415 41 -77 80 -163 86 -192 29
-120 -14 -251 -129 -396 -139 -173 -297 -271 -616 -381 -384 -132 -541 -187
-560 -195 -11 -5 -108 -39 -215 -77 -224 -77 -293 -109 -344 -158 -31 -31 -36
-42 -36 -82 0 -39 5 -51 33 -79 43 -43 91 -57 204 -61 110 -4 142 4 443 111
660 235 838 292 1050 337 200 42 220 43 330 18 52 -12 106 -24 120 -26 59 -11
185 -46 209 -59 59 -30 100 -89 202 -294 126 -250 141 -275 185 -296 95 -45
306 12 405 108 61 61 61 64 -57 352 -104 251 -113 296 -80 384 42 113 170 258
321 363 135 94 238 142 490 226 99 33 225 77 280 97 55 20 105 38 110 39 6 2
17 6 25 9 8 4 119 42 247 86 264 90 338 126 395 190 53 61 71 97 72 148 2 79
-60 114 -191 107 -66 -3 -341 -91 -913 -293 -264 -94 -408 -138 -506 -157 -91
-17 -274 -23 -354 -12 -209 29 -393 125 -466 240 -14 21 -81 179 -150 351 -69
172 -132 325 -140 341 -8 16 -14 33 -14 37 0 24 -72 160 -97 184 -80 78 -236
104 -381 65z"/>
<path d="M5667 4654 c-1 -1 -54 -4 -117 -8 -145 -7 -161 -9 -405 -53 -47 -8
-230 -71 -293 -100 -134 -63 -289 -191 -333 -277 -28 -52 -27 -127 2 -191 l22
-50 8 62 c4 34 15 75 24 93 56 108 224 214 455 288 52 17 109 32 125 35 17 3
53 10 82 16 115 23 278 37 400 35 98 -1 294 -14 303 -19 3 -2 30 -6 60 -10 30
-4 87 -13 125 -22 39 -8 78 -16 88 -18 45 -10 179 -60 242 -92 351 -175 372
-428 51 -615 -39 -23 -65 -43 -59 -45 17 -6 186 63 247 100 121 73 178 128
223 215 76 145 22 271 -172 402 -198 133 -475 220 -785 246 -64 5 -289 12
-293 8z"/>
<path d="M867 2764 c-1 -1 -26 -5 -56 -8 -29 -4 -96 -16 -150 -27 -409 -88
-640 -281 -567 -473 36 -95 184 -202 374 -270 40 -14 82 -28 95 -30 12 -3 63
-14 112 -25 103 -23 226 -34 370 -35 95 0 304 12 315 19 3 1 28 5 55 9 114 13
300 73 405 129 98 53 158 105 187 162 l15 30 -28 -26 c-114 -104 -314 -181
-579 -223 -91 -14 -406 -15 -470 -1 -16 3 -72 15 -124 26 -109 24 -272 79
-328 111 -157 90 -223 209 -174 311 37 76 158 170 268 208 63 21 361 102 381
102 6 0 10 3 6 6 -4 5 -102 9 -107 5z"/>
<path d="M4506 2402 c-2 -4 35 -36 82 -72 101 -76 142 -129 149 -193 7 -59
-10 -106 -55 -154 -48 -50 -150 -120 -205 -139 -90 -32 -328 -86 -447 -102
-72 -9 -372 -9 -430 0 -25 5 -63 11 -85 14 -63 10 -224 63 -300 101 -144 70
-216 145 -230 241 l-7 47 -15 -29 c-24 -47 -25 -115 -1 -164 38 -80 216 -200
373 -252 123 -41 194 -56 400 -86 104 -15 352 -6 490 18 33 5 73 12 89 14 44
5 217 51 261 69 159 64 272 150 315 241 28 56 26 128 -4 184 -25 48 -123 135
-191 169 -22 12 -72 39 -112 60 -40 22 -74 37 -77 33z"/>
</g>
</svg>
