<svg width="780" height="513" viewBox="0 0 780 513" fill="none" xmlns="http://www.w3.org/2000/svg">
<path d="M200.2 325.9L260.2 184H296.2V325.9H311.8V355.9H296.2V394H263.8V355.9H200.2V325.9ZM263.8 325.9V247L230.5 325.9H263.8ZM357.245 345.7C357.245 353.3 358.745 358.7 361.745 361.9C364.945 364.9 369.145 366.4 374.345 366.4C379.545 366.4 383.645 364.9 386.645 361.9C389.845 358.7 391.445 353.3 391.445 345.7V232.3C391.445 224.7 389.845 219.4 386.645 216.4C383.645 213.2 379.545 211.6 374.345 211.6C369.145 211.6 364.945 213.2 361.745 216.4C358.745 219.4 357.245 224.7 357.245 232.3V345.7ZM324.245 234.4C324.245 217.4 328.545 204.4 337.145 195.4C345.745 186.2 358.145 181.6 374.345 181.6C390.545 181.6 402.945 186.2 411.545 195.4C420.145 204.4 424.445 217.4 424.445 234.4V343.6C424.445 360.6 420.145 373.7 411.545 382.9C402.945 391.9 390.545 396.4 374.345 396.4C358.145 396.4 345.745 391.9 337.145 382.9C328.545 373.7 324.245 360.6 324.245 343.6V234.4ZM438.091 325.9L498.091 184H534.091V325.9H549.691V355.9H534.091V394H501.691V355.9H438.091V325.9ZM501.691 325.9V247L468.391 325.9H501.691Z" fill="#E6E6E6"/>
<path d="M749.596 140.111L731.08 58.1259L741.583 10.3489C742.166 7.70895 740.712 4.95095 738.044 4.01895C735.255 3.04495 732.204 4.61795 731.098 7.35695L711.75 55.2509C711.448 56.0079 711.286 56.8659 711.324 57.7329L711.399 59.4409L714.061 120.02C714.174 122.603 711.162 124.086 709.184 122.421L665.371 85.5359C663.978 83.7849 675.353 98.0889 613.129 19.8359L612.616 19.1929C611.696 18.0449 610.38 17.2049 608.822 16.9049L522.898 0.357948C520.423 -0.113052 517.963 1.56395 517.614 4.17395C517.309 6.45395 518.899 8.56595 521.128 9.13495L602.651 29.9129L637.278 90.4329L599.007 105.362L533.345 63.7919C531.207 62.4459 528.289 63.0919 526.983 65.3979C525.841 67.4129 526.527 69.9839 528.389 71.3609L593.934 119.808C595.262 120.784 596.966 121.279 598.728 121.047L600.006 120.879L654.346 113.739L704.627 167.909C711.163 174.951 714.796 184.204 714.796 193.812V494.52C714.796 500.211 719.409 504.823 725.099 504.823H768.696C774.387 504.823 778.999 500.21 778.999 494.52V115.638C778.999 109.095 770.06 107.2 767.405 113.18L755.204 140.661C754.045 143.274 750.226 142.898 749.596 140.111Z" fill="#80391B"/>
<path d="M557.068 422.064C555.323 422.064 553.605 421.606 552.088 420.731L511.402 397.26C506.634 394.51 504.998 388.416 507.749 383.649C510.499 378.881 516.592 377.245 521.36 379.996L559.489 401.99L590.097 400.376C595.595 400.084 600.285 404.304 600.577 409.8C600.868 415.297 596.649 419.988 591.153 420.28L557.595 422.05C557.42 422.06 557.244 422.064 557.068 422.064Z" fill="#FFAC91"/>
<path d="M565.722 354.578C567.284 344.355 560.225 334.795 549.955 333.226C539.686 331.657 530.095 338.674 528.533 348.898C526.971 359.121 534.03 368.681 544.3 370.25C554.569 371.819 564.16 364.802 565.722 354.578Z" fill="#FFB69E"/>
<path d="M500.953 495.579C497.504 489.946 499.274 482.584 504.906 479.135L524.411 467.189L494.077 458.991C492.551 458.578 491.174 457.889 489.986 456.99C486.21 454.136 484.341 449.176 485.652 444.326C487.376 437.951 493.942 434.177 500.317 435.902L531.576 444.351L557.453 451.345C567.565 454.078 569.507 467.62 560.578 473.088L517.397 499.532C511.789 502.966 504.417 501.236 500.953 495.579Z" fill="#414B82"/>
<path d="M490.003 456.967C488.133 455.634 486.54 453.917 485.343 451.905C483.075 448.088 482.42 443.525 483.524 439.226L495.558 392.364C497.207 385.945 501.353 380.452 507.074 377.107C512.795 373.762 519.616 372.844 526.017 374.556L532.908 376.398C537.208 377.548 540.871 380.368 543.081 384.231C545.292 388.094 545.868 392.68 544.682 396.97L531.576 444.35L490.003 456.967Z" fill="#64AFFF"/>
<path d="M591.221 376.106C588.021 371.628 581.797 370.593 577.319 373.793L545.908 396.242L522.211 379.153C517.747 375.934 511.519 376.942 508.299 381.406C505.08 385.87 506.089 392.099 510.553 395.318C546.18 421.012 538.969 415.791 539.946 416.516C540.001 416.534 545.871 420.969 551.854 416.49L588.908 390.009C593.386 386.808 594.422 380.584 591.221 376.106Z" fill="#FFB69E"/>
<path d="M540.093 392.049L522.211 379.152C517.747 375.933 511.518 376.942 508.299 381.406C505.08 385.87 506.088 392.098 510.552 395.318C519.272 401.606 525.426 406.043 529.762 409.168L540.093 392.049Z" fill="#4699F2"/>
<path d="M639.426 449.903C640.217 452.4 645.702 452.888 651.675 450.995C657.649 449.101 661.849 445.542 661.058 443.045C660.266 440.548 654.782 440.06 648.809 441.953C642.835 443.847 638.634 447.406 639.426 449.903Z" fill="#C8E6EB"/>
<path d="M593.573 464.445C594.365 466.942 599.849 467.43 605.822 465.537C611.796 463.643 615.997 460.084 615.205 457.587C614.413 455.09 608.929 454.602 602.956 456.495C596.982 458.389 592.782 461.948 593.573 464.445Z" fill="#C8E6EB"/>
<path d="M616.477 454.063C615.85 456.606 620.274 459.883 626.358 461.383C632.442 462.882 637.882 462.036 638.509 459.493C639.136 456.95 634.712 453.673 628.628 452.173C622.544 450.674 617.103 451.52 616.477 454.063Z" fill="#C8E6EB"/>
<path d="M680.753 475.859C681.801 478.26 687.306 478.173 693.049 475.666C698.792 473.159 702.597 469.18 701.549 466.78C700.502 464.38 694.997 464.466 689.254 466.974C683.511 469.481 679.705 473.459 680.753 475.859Z" fill="#C8E6EB"/>
<path d="M643.002 499.109L662.236 493.01C664.327 492.347 665.485 490.115 664.822 488.024L658.418 467.825L631.612 476.325L638.016 496.524C638.678 498.614 640.911 499.772 643.002 499.109Z" fill="#6C9BAA"/>
<path d="M648.817 489.493C651.815 489.493 654.245 487.063 654.245 484.066C654.245 481.068 651.815 478.639 648.817 478.639C645.82 478.639 643.39 481.068 643.39 484.066C643.39 487.063 645.82 489.493 648.817 489.493Z" fill="#46738C"/>
<path d="M668.163 469.212C666.594 469.212 665.137 468.206 664.638 466.629L657.257 443.351C656.639 441.403 657.717 439.323 659.666 438.705C661.612 438.088 663.694 439.166 664.311 441.114L671.692 464.393C672.31 466.341 671.231 468.421 669.283 469.038C668.911 469.156 668.534 469.212 668.163 469.212Z" fill="#6C9BAA"/>
<path d="M622.311 483.75C620.741 483.75 619.284 482.744 618.785 481.168L611.404 457.889C610.786 455.941 611.865 453.861 613.813 453.244C615.761 452.626 617.841 453.704 618.458 455.653L625.839 478.931C626.457 480.879 625.379 482.959 623.43 483.577C623.058 483.694 622.681 483.75 622.311 483.75Z" fill="#6C9BAA"/>
<path d="M684.35 501.529L660.042 469.385C658.808 467.756 659.128 465.435 660.757 464.201C662.387 462.967 664.708 463.288 665.941 464.917L690.249 497.061C691.483 498.69 691.163 501.011 689.534 502.245C687.901 503.481 685.581 503.155 684.35 501.529Z" fill="#3C5A73"/>
<path d="M623.195 501.699L618.117 495.758C617.195 494.679 616.971 493.167 617.541 491.867L624.096 476.923C624.917 475.052 627.099 474.199 628.971 475.021C630.842 475.842 631.695 478.024 630.873 479.896L625.251 492.714L628.821 496.892C630.148 498.445 629.965 500.781 628.412 502.108C626.851 503.442 624.517 503.246 623.195 501.699Z" fill="#3C5A73"/>
<path d="M622.663 484.873C620.57 484.873 618.628 483.53 617.962 481.429C617.138 478.831 618.576 476.058 621.173 475.235L666.321 460.92C668.92 460.096 671.691 461.535 672.515 464.132C673.339 466.729 671.901 469.502 669.303 470.326L624.155 484.641C623.659 484.798 623.157 484.873 622.663 484.873Z" fill="#3C5A73"/>
<g clip-path="url(#clip0)">
<path d="M99.932 294.326L56.3104 287.84C51.3771 287.106 47.9723 282.512 48.7057 277.579C49.4395 272.645 54.0334 269.24 58.9667 269.974L99.1641 275.951L124.827 258.975C128.987 256.223 134.59 257.365 137.341 261.525C140.093 265.685 138.951 271.288 134.792 274.04L106.243 292.925C104.377 294.16 102.126 294.653 99.932 294.326Z" fill="#FFB69E"/>
<path d="M183.202 277.94L203.219 283.166C205.394 283.734 207.619 282.43 208.187 280.254L213.675 259.234L185.778 251.951L180.29 272.971C179.722 275.147 181.026 277.371 183.202 277.94Z" fill="#6C9BAA"/>
<path d="M196.466 273.638C199.539 273.638 202.031 271.147 202.031 268.074C202.031 265.001 199.539 262.51 196.466 262.51C193.394 262.51 190.902 265.001 190.902 268.074C190.902 271.147 193.394 273.638 196.466 273.638Z" fill="#46738C"/>
<path d="M206.97 233.315C206.292 235.914 210.782 239.336 217 240.959C223.217 242.582 228.807 241.792 229.485 239.193C230.164 236.595 225.673 233.173 219.456 231.55C213.239 229.926 207.649 230.717 206.97 233.315Z" fill="#C8E6EB"/>
<path d="M230.197 237.203C228.541 239.317 231.3 244.243 236.358 248.205C241.417 252.167 246.86 253.664 248.516 251.55C250.172 249.436 247.413 244.51 242.355 240.549C237.296 236.587 231.853 235.089 230.197 237.203Z" fill="#C8E6EB"/>
<path d="M223.396 266.351C223.079 266.351 222.757 266.31 222.436 266.227C220.409 265.698 219.194 263.625 219.724 261.598L226.049 237.372C226.578 235.345 228.65 234.131 230.678 234.66C232.705 235.189 233.919 237.262 233.39 239.289L227.065 263.515C226.619 265.22 225.081 266.351 223.396 266.351Z" fill="#6C9BAA"/>
<path d="M161.783 213.253C160.227 215.441 163.211 220.233 168.447 223.956C173.683 227.679 179.189 228.922 180.745 226.734C182.301 224.545 179.318 219.753 174.081 216.03C168.845 212.308 163.339 211.064 161.783 213.253Z" fill="#C8E6EB"/>
<path d="M181.188 226.868C180.74 229.515 185.512 232.531 191.847 233.603C198.182 234.675 203.681 233.398 204.129 230.75C204.577 228.102 199.805 225.087 193.47 224.015C187.135 222.943 181.636 224.22 181.188 226.868Z" fill="#C8E6EB"/>
<path d="M175.679 253.892C175.362 253.892 175.039 253.852 174.718 253.768C172.691 253.239 171.476 251.166 172.006 249.139L178.331 224.913C178.86 222.886 180.932 221.673 182.96 222.201C184.987 222.73 186.202 224.803 185.672 226.83L179.347 251.056C178.902 252.761 177.364 253.892 175.679 253.892Z" fill="#6C9BAA"/>
<path d="M221.18 301.845C219.232 301.845 217.575 300.353 217.405 298.376L214.231 261.475C214.052 259.388 215.598 257.55 217.685 257.371C219.775 257.195 221.611 258.738 221.79 260.826L224.964 297.726C225.143 299.813 223.597 301.651 221.509 301.831C221.399 301.84 221.289 301.845 221.18 301.845Z" fill="#3C5A73"/>
<path d="M158.122 285.28C156.388 284.103 155.937 281.744 157.114 280.01L177.922 249.372C179.099 247.638 181.458 247.187 183.192 248.365C184.925 249.541 185.376 251.901 184.199 253.634L163.391 284.273C162.212 286.009 159.852 286.456 158.122 285.28Z" fill="#3C5A73"/>
<path d="M2.24438 421.633C-1.48624 416.638 -0.460574 409.563 4.53498 405.833L36.137 382.234L37.4807 350.135C37.7414 343.905 43.0103 339.068 49.2314 339.329C55.4607 339.589 60.2992 344.85 60.0385 351.079L58.4706 388.54C58.3286 391.933 56.6673 395.081 53.9463 397.113L18.0442 423.923C13.0263 427.67 5.95846 426.606 2.24438 421.633Z" fill="#748488"/>
<path d="M82.5365 448.764C76.3339 448.135 71.8159 442.595 72.4457 436.393L77.719 384.466L62.8977 344.057C60.7505 338.203 63.7555 331.718 69.609 329.571C75.4624 327.425 81.9481 330.429 84.0947 336.282L99.8114 379.133C100.401 380.739 100.617 382.458 100.444 384.16L94.9082 438.674C94.274 444.918 88.6949 449.392 82.5365 448.764Z" fill="#55696E"/>
<path d="M89.3602 350.607H37.4618V280.225C37.4618 272.649 43.6036 266.507 51.1796 266.507H75.6428C83.2188 266.507 89.3607 272.649 89.3607 280.225V350.607H89.3602Z" fill="#FFDA52"/>
<path d="M63.5192 258.646C74.7342 258.646 83.8258 249.555 83.8258 238.34C83.8258 227.125 74.7342 218.033 63.5192 218.033C52.3042 218.033 43.2126 227.125 43.2126 238.34C43.2126 249.555 52.3042 258.646 63.5192 258.646Z" fill="#FFB69E"/>
<path d="M223.031 267.519C222.608 267.519 222.178 267.466 221.749 267.354L174.766 255.087C172.063 254.381 170.444 251.618 171.149 248.915C171.855 246.212 174.618 244.593 177.321 245.299L224.305 257.566C227.008 258.271 228.627 261.035 227.921 263.738C227.327 266.012 225.277 267.519 223.031 267.519Z" fill="#3C5A73"/>
<path d="M66.871 319.171L49.4901 282.801C47.3396 278.301 49.2445 272.909 53.7445 270.758C58.2445 268.608 63.6364 270.512 65.7869 275.013L79.7494 304.23L109.086 294.64C113.826 293.092 118.926 295.677 120.476 300.419C122.026 305.159 119.439 310.259 114.698 311.809L77.826 323.862C73.5229 325.268 68.8309 323.273 66.871 319.171Z" fill="#FFB69E"/>
<path d="M58.547 301.752L75.0636 294.425L65.7874 275.013C63.6374 270.513 58.245 268.608 53.745 270.759C49.245 272.909 47.3396 278.301 49.4906 282.801L58.547 301.752Z" fill="#FFC305"/>
</g>
<defs>
<clipPath id="clip0">
<rect width="249" height="249" fill="white" transform="translate(0 206)"/>
</clipPath>
</defs>
</svg>
