<svg width="41" height="40" viewBox="0 0 41 40" fill="none" xmlns="http://www.w3.org/2000/svg">
<path d="M0.375 3.13433C0.375 1.40329 1.59736 0 3.10523 0H37.6448C39.1526 0 40.375 1.40329 40.375 3.13433V36.8657C40.375 38.5967 39.1526 40 37.6448 40H3.10523C1.59736 40 0.375 38.5967 0.375 36.8657V3.13433Z" fill="white"/>
<mask id="mask0" mask-type="alpha" maskUnits="userSpaceOnUse" x="0" y="0" width="41" height="40">
<path d="M0.375 3.13433C0.375 1.40329 1.59736 0 3.10523 0H37.6448C39.1526 0 40.375 1.40329 40.375 3.13433V36.8657C40.375 38.5967 39.1526 40 37.6448 40H3.10523C1.59736 40 0.375 38.5967 0.375 36.8657V3.13433Z" fill="white"/>
</mask>
<g mask="url(#mask0)">
<path d="M33.2362 0H25.1908L20.0539 12.0491L27.306 11.6336L33.2362 0Z" fill="#0D74BC"/>
<path d="M40.375 26.2514V7.479L34.8604 16.733L40.375 26.2514Z" fill="#0D74BC"/>
<path d="M8.11813 39.9998H12.8018L20.5827 24.8156C18.883 24.098 17.1455 23.4936 15.4458 22.9648L8.11813 39.9998Z" fill="#0D74BC"/>
<path d="M27.9482 28.3662L20.9982 39.9998H40.375V37.9979C36.8623 34.183 32.5563 30.9724 27.9482 28.3662Z" fill="#0D74BC"/>
<path d="M0.375 20.2832V39.9999H6.60729H8.15593L15.4458 22.9272C14.8037 22.7383 14.1616 22.5117 13.5195 22.3606C8.79804 21.0386 4.30323 20.3587 0.375 20.2832Z" fill="#8BC63F"/>
<path d="M0.375 0V13.22L18.1276 12.1624L20.0539 12.0491L25.1909 0H0.375Z" fill="#8BC63F"/>
</g>
</svg>
