<svg width="40" height="40" viewBox="0 0 40 40" fill="none" xmlns="http://www.w3.org/2000/svg">
<path d="M0 2.72432C0 1.21972 1.22236 0 2.73023 0H37.2698C38.7776 0 40 1.21972 40 2.72432V32.0432C40 33.5478 38.7776 34.7675 37.2698 34.7675H2.73023C1.22236 34.7675 0 33.5478 0 32.0432V2.72432Z" fill="#FF9901"/>
<path d="M0 7.95674C0 6.45214 1.22236 5.23242 2.73023 5.23242H37.2698C38.7776 5.23242 40 6.45214 40 7.95674V37.2756C40 38.7802 38.7776 40 37.2698 40H2.73023C1.22236 40 0 38.7802 0 37.2756V7.95674Z" fill="#E72E06"/>
<path d="M31.5494 11.8917C31.5494 12.9186 30.7151 13.7511 29.6859 13.7511C28.6567 13.7511 27.8224 12.9186 27.8224 11.8917C27.8224 10.8647 28.6567 10.0322 29.6859 10.0322C30.7151 10.0322 31.5494 10.8647 31.5494 11.8917Z" fill="#B52204"/>
<path d="M12.1344 11.8917C12.1344 12.9186 11.3001 13.7511 10.271 13.7511C9.24178 13.7511 8.40747 12.9186 8.40747 11.8917C8.40747 10.8647 9.24178 10.0322 10.271 10.0322C11.3001 10.0322 12.1344 10.8647 12.1344 11.8917Z" fill="#B52204"/>
<path d="M20.0831 22.5337C20.9333 22.5462 21.8579 22.434 22.7556 22.1746C26.1795 21.1851 28.5709 19.0378 29.9153 15.7424C30.4052 14.5416 30.6121 13.2806 30.6268 11.9881C30.6343 11.3356 30.102 10.8836 29.4928 11.0071C29.0141 11.1041 28.7358 11.4816 28.7292 12.0646C28.7153 13.285 28.4407 14.4446 27.9379 15.5548C26.1369 19.5319 21.5298 21.5784 17.3698 20.2468C13.7652 19.093 11.3495 15.8654 11.2548 12.0805C11.2512 11.9375 11.2395 11.7903 11.2011 11.6536C11.0792 11.2193 10.6421 10.9345 10.2075 10.991C9.70425 11.0565 9.36141 11.4313 9.36076 11.9509C9.35967 12.8254 9.46351 13.6895 9.6818 14.5373C10.8984 19.2622 15.1196 22.5337 20.0831 22.5337Z" fill="white"/>
<path d="M12.9062 30.8086V26.2366H15.6103V26.8124H13.4672V28.2175H15.3904V28.7933H13.4672V30.2327H15.7682V30.8085H12.9062V30.8086Z" fill="white"/>
<path d="M18.6164 30.8085L17.6822 29.5884L16.7548 30.8085H16.0954L17.3662 29.1771L16.0267 27.4979H16.7617L17.6822 28.7591L18.6096 27.4979H19.3376L18.0668 29.1771L19.2759 30.8085H18.6164Z" fill="white"/>
<path d="M20.1824 30.3081V32.5621H19.6149V29.1895C19.6149 28.3327 20.276 27.4156 21.3022 27.4156C22.3367 27.4156 23.1226 28.0736 23.1226 29.1498C23.1226 30.206 22.3324 30.9257 21.4309 30.9257C20.9774 30.9256 20.3933 30.7372 20.1824 30.3081ZM22.5255 29.1498C22.5255 28.4164 22.0533 27.9728 21.2033 28.0128C20.7985 28.0318 20.1644 28.3269 20.2245 29.3809C20.2437 29.7189 20.5937 30.3688 21.3687 30.3688C22.035 30.3688 22.5255 29.9832 22.5255 29.1498Z" fill="white"/>
<path d="M23.5962 30.8086V27.4979H24.1511V27.8499C24.423 27.5415 24.8455 27.4224 25.2988 27.4224V28.0256C25.237 28.0187 24.5648 27.9356 24.1511 28.801V30.8086H23.5962Z" fill="white"/>
<path d="M25.4643 29.1498C25.4643 28.1902 26.1513 27.4156 27.0993 27.4156C28.2754 27.4156 28.7161 28.197 28.7161 29.1909V29.4582H26.0826C26.1239 30.082 26.684 30.4117 27.2023 30.3973C27.5868 30.3867 27.848 30.2689 28.1159 29.9947L28.48 30.3767C28.1435 30.7058 27.6969 30.9257 27.1611 30.9257C26.1719 30.9256 25.4643 30.1848 25.4643 29.1498ZM27.0504 27.9728C26.5104 27.9728 26.1032 28.4369 26.0757 28.9373H28.1159C28.109 28.4506 27.7582 27.9728 27.0504 27.9728Z" fill="white"/>
<path d="M28.9865 30.3431C28.9865 30.3431 29.3978 29.9797 29.3987 29.9789C29.3909 29.9857 29.6065 30.1983 29.6289 30.2169C29.7216 30.2935 29.8268 30.3504 29.9435 30.3811C30.3011 30.4752 30.9466 30.4446 30.9915 29.9615C31.0171 29.6858 30.809 29.5354 30.5776 29.4492C30.2728 29.3357 29.9451 29.294 29.646 29.1628C29.3071 29.014 29.0896 28.7487 29.0896 28.3683C29.0896 27.3721 30.5068 27.2067 31.1507 27.6725C31.1844 27.6969 31.4987 27.9807 31.4852 27.9912L31.0687 28.3125C30.8695 28.0726 30.6654 27.9465 30.2328 27.9398C30.0185 27.9364 29.7146 28.0297 29.6522 28.2662C29.5656 28.5943 29.9421 28.7187 30.1855 28.7816C30.514 28.8664 30.8676 28.9136 31.1603 29.0967C31.5515 29.3412 31.6537 29.8709 31.4996 30.2837C31.3329 30.7302 30.849 30.9054 30.4063 30.9259C29.8853 30.95 29.4379 30.7833 29.0624 30.4191C29.0557 30.4129 28.9865 30.3431 28.9865 30.3431Z" fill="white"/>
<path d="M31.8748 30.3431C31.8748 30.3431 32.286 29.9797 32.2869 29.9789C32.2792 29.9857 32.4947 30.1983 32.5171 30.2169C32.6098 30.2935 32.7151 30.3504 32.8317 30.3811C33.1893 30.4752 33.8348 30.4446 33.8797 29.9615C33.9053 29.6858 33.6972 29.5354 33.4658 29.4492C33.161 29.3357 32.8333 29.294 32.5343 29.1628C32.1953 29.014 31.9779 28.7487 31.9779 28.3683C31.9779 27.3721 33.395 27.2067 34.039 27.6725C34.0726 27.6969 34.387 27.9807 34.3734 27.9912L33.9569 28.3125C33.7577 28.0726 33.5537 27.9465 33.121 27.9398C32.9067 27.9364 32.6028 28.0297 32.5404 28.2662C32.4538 28.5943 32.8304 28.7187 33.0737 28.7816C33.4022 28.8664 33.7558 28.9136 34.0485 29.0967C34.4397 29.3412 34.5419 29.8709 34.3878 30.2837C34.2211 30.7302 33.7372 30.9054 33.2945 30.9259C32.7735 30.95 32.3262 30.7833 31.9506 30.4191C31.9439 30.4129 31.8748 30.3431 31.8748 30.3431Z" fill="white"/>
<path d="M9.11011 30.8086L8.70483 29.7186H6.4929L6.08762 30.8086H5.50372L7.28289 26.2366H7.92175L9.69401 30.8085H9.11011V30.8086ZM7.56452 26.8878L6.7333 29.1498H8.47126L7.56452 26.8878Z" fill="white"/>
<path d="M10.036 30.8086V26.2366H10.6052V30.8085H10.036V30.8086Z" fill="white"/>
<path d="M11.4698 30.8086V27.5672H12.0391V30.8085H11.4698V30.8086Z" fill="white"/>
<path d="M12.5966 26.511C12.5969 26.5013 12.5981 26.4918 12.5981 26.482C12.5981 26.4722 12.5969 26.4627 12.5966 26.453C12.1567 26.4349 11.8045 26.0816 11.7893 25.6419C11.7777 25.6414 11.7662 25.6401 11.7544 25.6401C11.7426 25.6401 11.7311 25.6414 11.7194 25.6419C11.7043 26.0816 11.3521 26.4349 10.9122 26.453C10.9119 26.4627 10.9107 26.4722 10.9107 26.482C10.9107 26.4918 10.9119 26.5013 10.9122 26.511C11.3521 26.529 11.7043 26.8824 11.7194 27.3221C11.7311 27.3225 11.7426 27.3238 11.7544 27.3238C11.7662 27.3238 11.7777 27.3225 11.7893 27.3221C11.8045 26.8824 12.1567 26.529 12.5966 26.511Z" fill="white"/>
</svg>
