<svg width="41" height="40" viewBox="0 0 41 40" fill="none" xmlns="http://www.w3.org/2000/svg">
<path d="M3.41773 0.15H37.9573C39.3635 0.15 40.5375 1.46602 40.5375 3.13433V36.8657C40.5375 38.534 39.3635 39.85 37.9573 39.85H3.41773C2.01148 39.85 0.8375 38.534 0.8375 36.8657V3.13433C0.8375 1.46602 2.01148 0.15 3.41773 0.15Z" fill="white" stroke="#CCCCCC" stroke-width="0.3"/>
<mask id="mask0" mask-type="alpha" maskUnits="userSpaceOnUse" x="0" y="0" width="41" height="40">
<path d="M0.6875 3.13433C0.6875 1.40329 1.90986 0 3.41773 0H37.9573C39.4651 0 40.6875 1.40329 40.6875 3.13433V36.8657C40.6875 38.5967 39.4651 40 37.9573 40H3.41773C1.90986 40 0.6875 38.5967 0.6875 36.8657V3.13433Z" fill="#E72E06"/>
</mask>
<g mask="url(#mask0)">
<path d="M0.6875 20C1.17586 20.0724 1.66208 20.1672 2.15292 20.2133C4.29554 20.4147 6.43714 20.6359 8.58363 20.7848C10.7897 20.9378 12.9999 21.0593 15.2104 21.1144C17.9182 21.182 20.6281 21.1848 23.3371 21.1798C24.9649 21.1769 26.5935 21.1251 28.2203 21.0596C29.5798 21.0048 30.9373 20.8997 32.2956 20.814C33.2555 20.7534 34.2163 20.7018 35.1745 20.6212C36.3015 20.5265 37.4267 20.4097 38.5517 20.293C39.2646 20.2191 39.9756 20.1279 40.6875 20.0444C40.6875 26.6963 40.6875 33.3481 40.6875 40C27.3542 40 14.0208 40 0.6875 40C0.6875 33.3333 0.6875 26.6667 0.6875 20Z" fill="#FF8700"/>
<path d="M0.6875 20C1.17586 20.0724 1.66208 20.1672 2.15292 20.2133C4.29554 20.4147 6.43714 20.6359 8.58363 20.7848C10.7897 20.9378 12.9999 21.0593 15.2104 21.1144C17.9182 21.182 20.6281 21.1848 23.3371 21.1798C24.9649 21.1769 26.5935 21.1251 28.2203 21.0596C29.5798 21.0048 30.9373 20.8997 32.2956 20.814C33.2555 20.7534 34.2163 20.7018 35.1745 20.6212C36.3015 20.5265 37.4267 20.4097 38.5517 20.293C39.2646 20.2191 39.9756 20.1279 40.6875 20.0444C40.6875 26.6963 40.6875 33.3481 40.6875 40C27.3542 40 14.0208 40 0.6875 40C0.6875 33.3333 0.6875 26.6667 0.6875 20Z" fill="url(#paint0_linear)"/>
<path d="M13.5764 24.4447C13.5764 25.2793 12.8998 25.9558 12.0653 25.9558C11.2307 25.9558 10.5542 25.2793 10.5542 24.4447C10.5542 23.6101 11.2307 22.9336 12.0653 22.9336C12.8998 22.9336 13.5764 23.6101 13.5764 24.4447Z" fill="#F42B0D"/>
<path d="M30.8208 24.4447C30.8208 25.2793 30.1443 25.9558 29.3097 25.9558C28.4752 25.9558 27.7986 25.2793 27.7986 24.4447C27.7986 23.6101 28.4752 22.9336 29.3097 22.9336C30.1443 22.9336 30.8208 23.6101 30.8208 24.4447Z" fill="#F42B0D"/>
<path d="M20.964 27.8888C20.408 27.8591 19.7351 27.8381 19.0648 27.7836C18.0608 27.702 17.0656 27.5394 16.1076 27.2283C15.2312 26.9437 14.3605 26.6291 13.5164 26.2611C12.8895 25.9878 12.3066 25.6125 11.7091 25.2737C11.2872 25.0345 11.1446 24.5228 11.3748 24.1256C11.6191 23.704 12.1504 23.5561 12.5659 23.8209C13.4744 24.3997 14.4419 24.8588 15.4473 25.2332C16.5516 25.6443 17.6961 25.9056 18.8667 26.0501C19.981 26.1877 21.099 26.1888 22.2128 26.085C23.3253 25.9813 24.4154 25.7464 25.4784 25.3897C26.6464 24.9976 27.7581 24.4901 28.8024 23.8348C29.2348 23.5634 29.758 23.6899 30.0167 24.1175C30.2597 24.5192 30.1086 25.0142 29.6795 25.2832C28.7248 25.8815 27.7293 26.3973 26.6717 26.7873C25.3212 27.2853 23.9367 27.6421 22.4969 27.7597C22.0256 27.7982 21.5544 27.8391 20.964 27.8888Z" fill="white"/>
</g>
<g clip-path="url(#clip0)">
<path d="M5.0412 11.3398C5.71689 11.3752 6.36702 11.3772 7.00845 11.4532C7.50787 11.5123 7.8684 11.8122 7.96956 12.3338C8.06933 12.8482 8.00876 13.3246 7.54498 13.6661C7.52791 13.6786 7.51627 13.6985 7.50218 13.7149C7.65498 13.84 7.82902 13.9437 7.95249 14.0901C8.62369 14.886 8.25009 16.0752 7.24587 16.3585C7.09716 16.4005 6.94227 16.4422 6.7896 16.4446C6.18551 16.4545 5.5812 16.4487 4.95422 16.4487C4.98307 14.7538 5.01169 13.0734 5.0412 11.3398ZM5.78573 15.8082C6.15689 15.7795 6.52271 15.7888 6.87053 15.7142C7.2596 15.6308 7.47902 15.2973 7.46778 14.935C7.45667 14.577 7.23316 14.2841 6.83431 14.2131C6.49916 14.1534 6.15036 14.1705 5.78573 14.1525C5.78573 14.7167 5.78573 15.2318 5.78573 15.8082ZM5.82973 13.5129C6.1112 13.4978 6.39311 13.507 6.66587 13.4614C6.97827 13.4092 7.18849 13.103 7.19898 12.7581C7.20831 12.451 7.04151 12.1606 6.76765 12.1108C6.46876 12.0563 6.15898 12.0614 5.82969 12.0389C5.82973 12.5524 5.82973 13.0141 5.82973 13.5129Z" fill="black"/>
<path d="M17.0693 17.9249C17.0693 17.7187 17.0693 17.523 17.0693 17.3036C17.295 17.3252 17.4978 17.3568 17.701 17.3611C18.0099 17.3677 18.3226 17.3829 18.6275 17.3446C19.0638 17.2897 19.3101 17.007 19.3538 16.574C19.3787 16.327 19.3582 16.0754 19.3582 15.7715C19.2731 15.8462 19.2104 15.8885 19.1638 15.9442C18.8114 16.365 18.3442 16.4699 17.8396 16.3722C17.3382 16.2751 17.0813 15.897 16.9311 15.4353C16.7275 14.8092 16.7587 14.1905 17.0418 13.6019C17.2527 13.1634 17.6165 12.8774 18.096 12.7576C18.7306 12.599 19.3586 12.711 19.9871 12.808C20.1182 12.8282 20.1554 12.8964 20.1521 13.0203C20.1209 14.203 20.1173 15.3871 20.0561 16.5682C20.0122 17.4156 19.6309 17.8663 18.8746 17.9683C18.3971 18.0327 17.9025 17.9726 17.4156 17.9632C17.2992 17.9609 17.1833 17.9381 17.0693 17.9249ZM19.416 13.91C19.416 13.7499 19.4259 13.6302 19.4117 13.5135C19.4049 13.4584 19.3626 13.3765 19.3181 13.3618C18.7961 13.189 18.0634 13.1773 17.7404 13.8102C17.4724 14.3354 17.4767 14.8824 17.7115 15.4171C17.876 15.7917 18.2156 15.9253 18.5202 15.728C18.7194 15.599 18.9065 15.4259 19.0448 15.2336C19.3342 14.8312 19.4384 14.3632 19.416 13.91Z" fill="#FF6F27"/>
<path d="M21.0685 17.9584C21.0685 17.7604 21.0706 17.613 21.0679 17.4657C21.0653 17.3222 21.1335 17.3009 21.2657 17.3132C21.6331 17.3474 22.002 17.382 22.3704 17.3832C23.0006 17.3852 23.3412 17.0498 23.3729 16.4214C23.3832 16.2171 23.3745 16.0118 23.3745 15.7533C23.271 15.8495 23.193 15.9097 23.1296 15.9827C22.5401 16.6622 21.2827 16.5508 20.9592 15.5119C20.7524 14.8475 20.7504 14.1968 21.0623 13.5749C21.2797 13.1416 21.6497 12.8636 22.132 12.7494C22.7615 12.6002 23.3816 12.7164 24.0008 12.8176C24.0594 12.8271 24.1481 12.9284 24.1471 12.9858C24.1265 14.1908 24.1125 15.3964 24.0599 16.6003C24.0197 17.5197 23.4279 18.0041 22.6078 17.9946C22.0998 17.9887 21.5918 17.9711 21.0685 17.9584ZM23.4202 13.8964C23.4202 13.7706 23.4267 13.6443 23.4171 13.5192C23.4131 13.4676 23.3888 13.3975 23.3499 13.3714C22.9484 13.1028 22.0865 13.2754 21.8223 13.6944C21.4667 14.2583 21.474 14.8597 21.7377 15.4532C21.8843 15.7829 22.1839 15.9093 22.4628 15.7564C22.6696 15.643 22.8699 15.4799 23.011 15.2922C23.3167 14.8853 23.4542 14.4119 23.4202 13.8964Z" fill="#FF6F27"/>
<path d="M36.3546 16.449C36.1335 16.449 35.9502 16.449 35.7498 16.449C35.7259 16.2521 35.7031 16.064 35.6767 15.8464C35.623 15.8912 35.5866 15.9123 35.5625 15.9431C35.2037 16.4016 34.7333 16.6108 34.1591 16.5224C33.5808 16.4334 33.2929 16.015 33.1387 15.4987C32.9388 14.8294 32.9617 14.1643 33.3042 13.5418C33.6443 12.9236 34.2074 12.6767 34.8903 12.6638C35.1262 12.6594 35.3623 12.6631 35.6413 12.6631C35.6413 12.1252 35.6413 11.5606 35.6413 10.9775C35.9289 10.9775 36.1741 10.9775 36.4525 10.9775C36.4199 12.8013 36.3874 14.6165 36.3546 16.449ZM35.6253 13.9408C35.6253 13.8077 35.6311 13.6743 35.6225 13.5418C35.6191 13.4907 35.5976 13.4194 35.56 13.3953C35.2971 13.2264 34.5911 13.2764 34.3245 13.4741C33.7915 13.8694 33.6644 15.2333 34.1138 15.7276C34.24 15.8664 34.403 15.9282 34.5744 15.8722C34.7308 15.8211 34.8937 15.7442 35.0135 15.6347C35.5099 15.1808 35.6324 14.582 35.6253 13.9408Z" fill="black"/>
<path d="M12.0005 16.448C11.8061 16.448 11.6167 16.448 11.4025 16.448C11.3817 16.2467 11.361 16.0462 11.336 15.8044C11.2648 15.8884 11.2236 15.9365 11.1829 15.9851C10.8096 16.4305 10.3377 16.6265 9.76294 16.5119C9.18832 16.3973 8.92063 15.9753 8.78112 15.453C8.64276 14.9349 8.65169 14.4133 8.8128 13.9013C9.05303 13.1377 9.63156 12.6733 10.4396 12.6643C10.9382 12.6588 11.4384 12.7434 11.9362 12.8012C11.9907 12.8075 12.0778 12.9049 12.0772 12.9593C12.0649 14.0907 12.0423 15.2221 12.0208 16.3533C12.0202 16.3813 12.0091 16.4091 12.0005 16.448ZM11.2812 14.0033C11.2884 13.8733 11.2941 13.8069 11.2954 13.7404C11.3025 13.362 11.3029 13.3558 10.9219 13.3085C10.4506 13.2498 9.98894 13.2923 9.7312 13.7503C9.40338 14.333 9.39556 14.9577 9.6812 15.5625C9.84169 15.9023 10.1808 15.9881 10.4808 15.7609C10.6868 15.6049 10.8666 15.3945 11.0064 15.1755C11.2435 14.8041 11.3096 14.3784 11.2812 14.0033Z" fill="black"/>
<path d="M32.6146 14.3841C32.6186 15.6098 32.059 16.3442 31.1083 16.5169C30.7022 16.5907 30.2953 16.5626 29.9074 16.407C29.5805 16.2759 29.3343 16.0516 29.1618 15.7408C28.7646 15.0254 28.8435 13.8763 29.3507 13.2425C29.446 13.1234 29.5657 13.0127 29.6959 12.9344C30.3555 12.5378 31.0543 12.5155 31.7306 12.8476C32.4264 13.1893 32.598 13.8478 32.6146 14.3841ZM31.8134 14.5098C31.7962 14.3932 31.785 14.2066 31.7391 14.029C31.6314 13.6113 31.2922 13.3185 30.9172 13.2973C30.3771 13.2668 30.032 13.4777 29.8476 13.9399C29.6907 14.3332 29.6841 14.7337 29.7848 15.1369C29.8719 15.4859 30.053 15.7712 30.4288 15.8559C30.8245 15.9451 31.1851 15.8948 31.4811 15.5649C31.7393 15.277 31.7872 14.9359 31.8134 14.5098Z" fill="black"/>
<path d="M26.6995 12.5918C27.7746 12.6543 28.4162 13.2651 28.4861 14.3311C28.5315 15.0248 28.3993 15.6596 27.8421 16.1363C27.1453 16.7326 25.9009 16.6901 25.2776 16.0531C24.8857 15.6525 24.8113 15.1376 24.8038 14.6156C24.7926 13.8308 25.0446 13.1618 25.8057 12.8133C26.08 12.6878 26.4003 12.6627 26.6995 12.5918ZM27.739 14.5701C27.7285 14.5659 27.7179 14.5617 27.7074 14.5575C27.6912 14.4182 27.6849 14.277 27.657 14.14C27.5583 13.6556 27.2177 13.3217 26.8082 13.2975C26.2409 13.264 25.8573 13.5146 25.6892 14.0381C25.578 14.3844 25.5768 14.7382 25.6553 15.0907C25.7589 15.5561 26.0392 15.8336 26.4426 15.8833C26.9515 15.9459 27.3277 15.7642 27.5321 15.308C27.6353 15.0774 27.6721 14.817 27.739 14.5701Z" fill="black"/>
<path d="M16.1567 16.449C15.8473 16.449 15.6051 16.449 15.3544 16.449C15.3544 16.0333 15.3539 15.629 15.3545 15.2247C15.3552 14.7812 15.3644 14.3375 15.355 13.8942C15.3499 13.656 15.2762 13.4335 15.0305 13.3336C14.7787 13.2314 14.5712 13.3402 14.3829 13.5043C13.9288 13.9002 13.7507 14.4203 13.7244 15.001C13.706 15.4072 13.7111 15.8144 13.7034 16.2211C13.702 16.2932 13.6894 16.365 13.6808 16.448C13.4248 16.448 13.1836 16.448 12.9615 16.448C12.9615 15.2059 12.9615 13.9693 12.9615 12.7254C13.1949 12.7254 13.378 12.7254 13.5819 12.7254C13.61 12.9228 13.6375 13.1166 13.6713 13.3546C13.7329 13.2891 13.7708 13.2533 13.8035 13.2133C14.1841 12.7478 14.6683 12.5621 15.2615 12.6745C15.5815 12.7351 15.8267 12.9138 15.9522 13.2089C16.049 13.4368 16.1408 13.6867 16.1477 13.9293C16.1714 14.7626 16.1567 15.597 16.1567 16.449Z" fill="black"/>
</g>
<defs>
<linearGradient id="paint0_linear" x1="0.6875" y1="20" x2="7.97639" y2="40" gradientUnits="userSpaceOnUse">
<stop stop-color="#FD3727"/>
<stop offset="1" stop-color="#FD3727" stop-opacity="0"/>
</linearGradient>
<clipPath id="clip0">
<rect width="31.4984" height="7.0204" fill="white" transform="translate(4.95416 10.9775)"/>
</clipPath>
</defs>
</svg>
