<svg width="60" height="60" viewBox="0 0 60 60" fill="none" xmlns="http://www.w3.org/2000/svg">
<path d="M15 0C12.9375 0 11.25 1.6875 11.25 3.75V56.25C11.25 58.3125 12.9375 60 15 60H52.5C54.5625 60 56.25 58.3125 56.25 56.25V15L41.25 0H15Z" fill="#E2E5E7"/>
<path d="M45 15H56.25L41.25 0V11.25C41.25 13.3125 42.9375 15 45 15Z" fill="#B0B7BD"/>
<path d="M56.25 26.25L45 15H56.25V26.25Z" fill="#CAD1D8"/>
<path d="M48.75 48.75C48.75 49.7813 47.9063 50.625 46.875 50.625H5.625C4.59375 50.625 3.75 49.7813 3.75 48.75V30C3.75 28.9687 4.59375 28.125 5.625 28.125H46.875C47.9063 28.125 48.75 28.9687 48.75 30V48.75Z" fill="#F7B84E"/>
<path d="M11.1985 35.1264C11.1985 33.8664 13.1785 33.8664 13.1785 35.1264V41.0476C13.1785 43.4008 12.0535 44.8258 9.4622 44.8258C8.1872 44.8258 7.1222 44.4789 6.19408 43.2827C5.42908 42.3677 6.8672 41.0495 7.6472 42.0077C8.2772 42.7877 8.95033 42.9677 9.61033 42.9358C10.4503 42.9058 11.1853 42.5308 11.2003 41.0476V35.1264H11.1985Z" fill="white"/>
<path d="M30.4586 44.868C27.6854 44.988 24.8054 43.143 24.8054 39.4699C24.8054 35.7818 27.6835 33.9686 30.4586 33.9686C33.0817 34.1018 35.8248 35.9168 35.8248 39.4699C35.8248 43.0249 33.0817 44.868 30.4586 44.868ZM30.2936 35.9186C28.6135 35.9186 26.7854 37.1036 26.7854 39.4718C26.7854 41.8268 28.6154 43.0268 30.2936 43.0268C32.0186 43.0268 33.8617 41.8268 33.8617 39.4718C33.8617 37.1018 32.0186 35.9186 30.2936 35.9186Z" fill="white"/>
<path d="M37.5957 35.5905C37.5957 35.0505 37.7157 34.5255 38.4938 34.5255C39.0338 34.5255 39.1538 34.6605 39.5588 35.0505L44.5201 41.2568V35.4405C44.5201 34.9455 44.9532 34.4055 45.4651 34.4055C46.0032 34.4055 46.5282 34.9455 46.5282 35.4405V43.8799C46.5282 44.5418 46.1232 44.7949 45.7332 44.9149C45.2101 44.9149 44.9532 44.7968 44.5201 44.3918L39.5588 38.0936V43.8799C39.5588 44.5418 39.1538 44.9149 38.6138 44.9149C38.0738 44.9149 37.5957 44.5418 37.5957 43.8799V35.5905V35.5905Z" fill="white"/>
<path d="M15.4791 36.4746C15.8241 33.5664 20.2154 33.0433 22.2854 34.6333C23.3054 35.4564 22.2254 36.7614 21.3254 36.1014C20.2154 35.3964 17.6973 35.0664 17.3823 36.6246C16.9773 39.0846 23.4985 37.6764 23.3935 41.6627C23.2885 45.4708 17.7723 45.5608 15.7023 43.8508C15.2073 43.4477 15.2223 42.7896 15.4923 42.3827C15.8823 41.9946 16.3154 41.8596 16.8273 42.2777C18.0554 43.1177 21.2204 43.7477 21.4454 41.6158C21.2504 39.3996 15.0141 40.7346 15.4791 36.4746Z" fill="white"/>
<path d="M46.875 50.625H11.25V52.5H46.875C47.9063 52.5 48.75 51.6563 48.75 50.625V48.75C48.75 49.7813 47.9063 50.625 46.875 50.625Z" fill="#CAD1D8"/>
</svg>
