<svg width="60" height="60" viewBox="0 0 60 60" fill="none" xmlns="http://www.w3.org/2000/svg">
<path d="M15 0C12.9375 0 11.25 1.6875 11.25 3.75V56.25C11.25 58.3125 12.9375 60 15 60H52.5C54.5625 60 56.25 58.3125 56.25 56.25V15L41.25 0H15Z" fill="#E2E5E7"/>
<path d="M45 15H56.25L41.25 0V11.25C41.25 13.3125 42.9375 15 45 15Z" fill="#B0B7BD"/>
<path d="M56.25 26.25L45 15H56.25V26.25Z" fill="#CAD1D8"/>
<path d="M48.75 48.75C48.75 49.7813 47.9063 50.625 46.875 50.625H5.625C4.59375 50.625 3.75 49.7813 3.75 48.75V30C3.75 28.9687 4.59375 28.125 5.625 28.125H46.875C47.9063 28.125 48.75 28.9687 48.75 30V48.75Z" fill="#5252C0"/>
<path d="M26.2199 35.0466C26.2199 33.7866 28.1999 33.7866 28.1999 35.0466V40.9678C28.1999 43.3209 27.0749 44.7459 24.4837 44.7459C23.2087 44.7459 22.1437 44.3991 21.2156 43.2028C20.4506 42.2878 21.8887 40.9697 22.6687 41.9278C23.2987 42.7078 23.9718 42.8878 24.6318 42.8559C25.4718 42.8259 26.2068 42.4509 26.2218 40.9678V35.0466H26.2199Z" fill="white"/>
<path d="M22.6265 35.0466C22.6265 33.7866 20.6465 33.7866 20.6465 35.0466V40.9678C20.6465 43.3209 21.7715 44.7459 24.3627 44.7459C25.6377 44.7459 26.7027 44.3991 27.6309 43.2028C28.3959 42.2878 26.9577 40.9697 26.1777 41.9278C25.5477 42.7078 24.8746 42.8878 24.2146 42.8559C23.3746 42.8259 22.6396 42.4509 22.6246 40.9678V35.0466H22.6265Z" fill="white"/>
<path d="M30.0261 44.6381C29.5461 44.3662 29.2461 43.8281 29.5461 43.1981L33.8474 34.7887C34.2524 33.9937 35.3324 33.9637 35.7074 34.7887L39.9336 43.1981C40.5486 44.3662 38.7336 45.2962 38.1955 44.1281L37.5336 42.8081H32.0024L31.3574 44.1281C31.1193 44.6381 30.5643 44.745 30.0261 44.6381ZM36.4705 40.83L34.7774 37.1268L32.9343 40.83H36.4705Z" fill="white"/>
<path d="M12.4219 35.2406C12.4219 34.7456 12.8419 34.3256 13.3669 34.3256C13.8469 34.3256 14.2519 34.7474 14.2519 35.2406V42.7518H18.33C19.7981 42.7518 19.83 44.7149 18.33 44.7149H13.3688C12.8438 44.7149 12.4237 44.3418 12.4237 43.7999V35.2406H12.4219Z" fill="white"/>
<path d="M46.875 50.625H11.25V52.5H46.875C47.9063 52.5 48.75 51.6563 48.75 50.625V48.75C48.75 49.7813 47.9063 50.625 46.875 50.625Z" fill="#CAD1D8"/>
</svg>
