<svg width="150" height="150" viewBox="0 0 150 150" fill="none" xmlns="http://www.w3.org/2000/svg">
<g clip-path="url(#clip0)">
<path d="M15.7331 56.7622L6.44072 58.4811C5.00107 58.7471 3.61825 57.7961 3.35224 56.3568L0.0446114 38.476C-0.221405 37.0363 0.729574 35.6535 2.16893 35.3875L11.4613 33.6686C12.901 33.4026 14.2838 34.3536 14.5498 35.793L17.8571 53.6735C18.1235 55.1131 17.1725 56.4959 15.7331 56.7622Z" fill="#46738C"/>
<path d="M51.1135 143.557C54.7223 143.557 57.6479 140.632 57.6479 137.023V84.7929C57.6479 81.1841 54.7226 78.2585 51.1135 78.2585C47.5044 78.2585 44.5791 81.1841 44.5791 84.7929V137.023C44.5791 140.632 47.5047 143.557 51.1135 143.557Z" fill="#748488"/>
<path d="M66.8877 143.557C70.4965 143.557 73.422 140.632 73.422 137.023V84.7929C73.422 81.1841 70.4967 78.2585 66.8877 78.2585C63.2789 78.2585 60.3533 81.1841 60.3533 84.7929V137.023C60.3536 140.632 63.2789 143.557 66.8877 143.557Z" fill="#55696E"/>
<path d="M114.589 44.9389C113.41 42.156 110.197 40.856 107.415 42.0355L90.556 49.1811L84.1441 38.6122C81.8976 34.9094 77.8113 32.6093 73.4803 32.6093H73.4223C69.9409 32.6093 48.1059 32.6093 44.5795 32.6093V32.611H44.1793C38.3433 32.611 33.347 36.5816 32.0289 42.267L29.7974 51.8937L18.6827 46.7184C15.9432 45.4428 12.6877 46.6296 11.4118 49.3694C10.1362 52.1093 11.323 55.3645 14.0629 56.6401L31.2948 64.6636C34.4357 66.1261 38.1485 64.3337 38.9357 60.9385L42.6913 44.7388C42.8527 44.0421 43.4647 43.5558 44.1799 43.5558H44.58V84.7935H73.4229V43.554H73.4809C74.0115 43.554 74.5121 43.8358 74.7872 44.2896L83.6548 58.9056C85.0523 61.2086 87.9445 62.1748 90.4687 61.1055L111.686 52.1128C114.468 50.933 115.768 47.7212 114.589 44.9389Z" fill="#FFB69E"/>
<path d="M58.8695 29.0119C65.1019 29.0119 70.1541 23.9596 70.1541 17.7273C70.1541 11.495 65.1019 6.44269 58.8695 6.44269C52.6372 6.44269 47.585 11.495 47.585 17.7273C47.585 23.9596 52.6372 29.0119 58.8695 29.0119Z" fill="#FFB69E"/>
<path d="M84.1437 38.6122C81.8972 34.9094 77.8108 32.6093 73.4799 32.6093H73.4219C69.4934 32.6093 67.3252 32.6093 64.6753 32.6093C64.5001 35.6292 62.1736 38.1675 59.04 38.1675C56.1165 38.1675 53.316 35.6198 53.3977 32.6093H44.5787V32.611H44.1785C38.3426 32.611 33.3463 36.5816 32.0282 42.267L30.3164 49.6516L40.8504 52.6747L42.6903 44.7391C42.8517 44.0424 43.4637 43.5561 44.1788 43.5561H44.579V84.7938H73.4219V43.554H73.4799C74.0104 43.554 74.5111 43.8358 74.7862 44.2896L79.9601 52.8171L89.2777 47.0749L84.1437 38.6122Z" fill="#FA503C"/>
<path d="M125.257 39.2357C127.559 39.2357 129.425 37.3694 129.425 35.0673C129.425 32.7652 127.559 30.8989 125.257 30.8989C122.955 30.8989 121.088 32.7652 121.088 35.0673C121.088 37.3694 122.955 39.2357 125.257 39.2357Z" fill="#46738C"/>
<path d="M100.543 38.3367L131.488 50.1408L133.648 44.477L102.704 32.6728L100.543 38.3367Z" fill="#3C5A73"/>
<path d="M112.193 25.3024L115.986 58.2043L122.008 57.5101L118.216 24.6083L112.193 25.3024Z" fill="#3C5A73"/>
<path d="M86.858 38.4265C83.2976 33.8444 84.1243 27.255 88.7067 23.6939C93.2776 20.142 99.8864 20.9711 103.439 25.5426C106.991 30.1141 106.162 36.7232 101.591 40.2751V40.2754C97.0182 43.8277 90.4091 42.9974 86.858 38.4265ZM92.4265 28.4811C90.4902 29.9857 90.1401 32.7701 91.6451 34.7072C93.1466 36.6388 95.9392 36.9898 97.871 35.4886C99.8026 33.9874 100.154 31.1945 98.6524 29.2624C97.1535 27.3338 94.3615 26.9775 92.4265 28.4811Z" fill="#C8E6EB"/>
<path d="M113.469 28.254C110.335 28.254 107.233 26.8609 105.166 24.2008C101.606 19.6187 102.433 13.0293 107.015 9.46823C111.586 5.91656 118.195 6.74537 121.748 11.3169C125.3 15.8884 124.47 22.4975 119.899 26.0494C117.988 27.5351 115.72 28.254 113.469 28.254ZM110.735 14.2556C108.799 15.7603 108.449 18.5447 109.953 20.4818C111.455 22.4137 114.248 22.7643 116.179 21.2632C118.111 19.762 118.462 16.9691 116.961 15.037C115.462 13.1084 112.67 12.7521 110.735 14.2556Z" fill="#C8E6EB"/>
<path d="M131.208 57.7159C127.655 53.1444 128.485 46.5353 133.056 42.9833C137.627 39.4314 144.237 40.2605 147.789 44.8323C151.349 49.4146 150.523 56.0038 145.94 59.5648C141.361 63.1226 134.768 62.2985 131.208 57.7159ZM136.776 47.7708C134.844 49.2719 134.493 52.0648 135.995 53.9969C137.499 55.9332 140.284 56.2833 142.22 54.7783C144.157 53.2739 144.506 50.4892 143.002 48.5524C141.503 46.6238 138.711 46.2669 136.776 47.7708Z" fill="#C8E6EB"/>
<path d="M112.899 71.9416C109.347 67.3701 110.176 60.761 114.748 57.209C119.319 53.6571 125.928 54.4862 129.48 59.058C133.041 63.64 132.214 70.2295 127.632 73.7905C123.052 77.3481 116.46 76.5242 112.899 71.9416ZM121.185 61.0648C120.233 61.0648 119.275 61.3686 118.467 61.9962C116.535 63.4973 116.184 66.2902 117.686 68.2224C119.191 70.1586 121.975 70.5084 123.912 69.0037C125.848 67.4993 126.198 64.7146 124.693 62.7775C123.82 61.6537 122.509 61.0648 121.185 61.0648Z" fill="#C8E6EB"/>
<path d="M128.721 39.5274L121.791 30.6083C121.244 29.904 120.215 29.8084 119.548 30.3994L106.619 41.8433C106.009 42.3833 105.923 43.3044 106.423 43.9477L111.998 51.1226C112.498 51.7659 113.411 51.9103 114.085 51.4527L128.369 41.7531C129.107 41.2515 129.269 40.2314 128.721 39.5274Z" fill="#6C9BAA"/>
</g>
<defs>
<clipPath id="clip0">
<rect width="150" height="150" fill="white"/>
</clipPath>
</defs>
</svg>
