<?xml version="1.0"?>
<svg xmlns="http://www.w3.org/2000/svg" xmlns:xlink="http://www.w3.org/1999/xlink" xmlns:svgjs="http://svgjs.com/svgjs" version="1.1" width="512" height="512" x="0" y="0" viewBox="0 0 512 512" style="enable-background:new 0 0 512 512" xml:space="preserve"><g transform="matrix(-1,0,0,1,512.0000610351562,0)">
<path xmlns="http://www.w3.org/2000/svg" style="" d="M164.958,478.737c0,4.762-3.861,8.623-8.623,8.623h-43.811c-4.762,0-8.623-3.861-8.623-8.623V432.73  h61.057V478.737z" fill="#6c9baa" data-original="#6c9baa"/>
<circle xmlns="http://www.w3.org/2000/svg" style="" cx="134.427" cy="460.05" r="11.783" fill="#46738c" data-original="#46738c"/>
<g xmlns="http://www.w3.org/2000/svg">
	<ellipse style="" cx="106.847" cy="378.9" rx="24.637" ry="10.297" fill="#c8e6eb" data-original="#c8e6eb"/>
	<ellipse style="" cx="57.577" cy="378.9" rx="24.637" ry="10.297" fill="#c8e6eb" data-original="#c8e6eb"/>
	<ellipse style="" cx="211.287" cy="378.9" rx="24.637" ry="10.297" fill="#c8e6eb" data-original="#c8e6eb"/>
	<ellipse style="" cx="162.007" cy="378.9" rx="24.637" ry="10.297" fill="#c8e6eb" data-original="#c8e6eb"/>
</g>
<g xmlns="http://www.w3.org/2000/svg">
	<path style="" d="M82.209,438.086c-4.437,0-8.034-3.597-8.034-8.034v-53.023c0-4.437,3.597-8.034,8.034-8.034   s8.034,3.597,8.034,8.034v53.023C90.243,434.489,86.646,438.086,82.209,438.086z" fill="#6c9baa" data-original="#6c9baa"/>
	<path style="" d="M186.649,438.086c-4.437,0-8.034-3.597-8.034-8.034v-53.023c0-4.437,3.597-8.034,8.034-8.034   s8.034,3.597,8.034,8.034v53.023C194.683,434.489,191.086,438.086,186.649,438.086z" fill="#6c9baa" data-original="#6c9baa"/>
</g>
<g xmlns="http://www.w3.org/2000/svg">
	<path style="" d="M65.059,511.534c-4.181-1.485-6.367-6.078-4.883-10.259l26.244-73.911   c1.485-4.181,6.077-6.367,10.259-4.883c4.181,1.485,6.367,6.078,4.883,10.259l-26.244,73.911   C73.842,510.812,69.26,513.026,65.059,511.534z" fill="#3c5a73" data-original="#3c5a73"/>
	<path style="" d="M193.539,506.652l-26.244-73.911c-1.484-4.181,0.701-8.774,4.883-10.259   c4.181-1.484,8.774,0.701,10.259,4.883l26.244,73.911c1.484,4.181-0.701,8.774-4.883,10.259   C199.611,513.022,195.022,510.826,193.539,506.652z" fill="#3c5a73" data-original="#3c5a73"/>
	<path style="" d="M185.846,440.764H83.012c-5.916,0-10.712-4.796-10.712-10.712s4.796-10.712,10.712-10.712h102.833   c5.916,0,10.712,4.796,10.712,10.712S191.762,440.764,185.846,440.764z" fill="#3c5a73" data-original="#3c5a73"/>
</g>
<path xmlns="http://www.w3.org/2000/svg" style="" d="M275.009,201.526L191.4,176.429c-10.643-3.195-16.681-14.412-13.486-25.055  s14.406-16.68,25.056-13.487l76.064,22.832l95.739-46.8c9.983-4.88,22.031-0.744,26.912,9.24c4.88,9.983,0.743,22.032-9.24,26.912  L289.63,200.33C285.126,202.534,279.906,202.996,275.009,201.526z" fill="#ffb69e" data-original="#ffb69e"/>
<path xmlns="http://www.w3.org/2000/svg" style="" d="M394.336,511.953c-13.891-0.02-25.135-11.296-25.115-25.186l0.277-193.661  c0.02-13.877,11.278-25.114,25.15-25.114c0.014,0,0.024,0,0.037,0c13.891,0.02,25.135,11.296,25.115,25.186l-0.277,193.661  C419.503,500.583,408.39,511.953,394.336,511.953z" fill="#5f6e9b" data-original="#5f6e9b"/>
<path xmlns="http://www.w3.org/2000/svg" style="" d="M293.616,489.758l-14.154-121.45c-0.456-3.911,0.014-7.875,1.369-11.572l35.015-95.466  c4.783-13.042,19.237-19.735,32.272-14.951c13.04,4.783,19.735,19.232,14.952,32.272l-32.952,89.843l13.461,115.501  c1.608,13.797-8.273,26.285-22.07,27.892C307.656,513.441,295.218,503.503,293.616,489.758z" fill="#414b82" data-original="#414b82"/>
<path xmlns="http://www.w3.org/2000/svg" style="" d="M304.175,293.141H419.8V136.338c0-16.879-13.683-30.562-30.562-30.562h-54.501  c-16.879,0-30.562,13.683-30.562,30.562L304.175,293.141L304.175,293.141z" fill="#64afff" data-original="#64afff"/>
<circle xmlns="http://www.w3.org/2000/svg" style="" cx="359.707" cy="45.24" r="45.24" fill="#ffac91" data-original="#ffac91"/>
<path xmlns="http://www.w3.org/2000/svg" style="" d="M212.273,130.048l-25.352,36.45l-29.546-76.552l19.513-28.055c1.147-1.649,3.111-2.53,5.105-2.29  c1.994,0.24,3.693,1.561,4.417,3.435L212.273,130.048z" fill="#b4d7dc" data-original="#b4d7dc"/>
<path xmlns="http://www.w3.org/2000/svg" style="" d="M363.743,135.181c-1.759-10.972,5.71-21.292,16.683-23.051l48.992-7.853l-30.761-65.882  c-4.701-10.068-0.349-22.042,9.719-26.743c10.067-4.702,22.041-0.349,26.743,9.719l42.041,90.041  c5.643,12.086-1.845,26.262-15.047,28.378l-75.318,12.072C375.847,153.62,365.505,146.176,363.743,135.181z" fill="#ffb69e" data-original="#ffb69e"/>
<path xmlns="http://www.w3.org/2000/svg" style="" d="M428.399,104.44l-47.974,7.69c-10.972,1.758-18.441,12.079-16.683,23.051  c1.762,10.995,12.105,18.439,23.051,16.682l51.344-8.229L428.399,104.44z" fill="#4699f2" data-original="#4699f2"/>
<path xmlns="http://www.w3.org/2000/svg" style="" d="M241.295,154.199c0.61,1.581,0.447,3.357-0.442,4.801c-0.889,1.443-2.401,2.389-4.087,2.556  l-49.844,4.942l-29.546-76.552l52.829-5.238c2.43-0.241,4.721,1.17,5.6,3.448L241.295,154.199z" fill="#c8e6eb" data-original="#c8e6eb"/>
<g xmlns="http://www.w3.org/2000/svg">
</g>
<g xmlns="http://www.w3.org/2000/svg">
</g>
<g xmlns="http://www.w3.org/2000/svg">
</g>
<g xmlns="http://www.w3.org/2000/svg">
</g>
<g xmlns="http://www.w3.org/2000/svg">
</g>
<g xmlns="http://www.w3.org/2000/svg">
</g>
<g xmlns="http://www.w3.org/2000/svg">
</g>
<g xmlns="http://www.w3.org/2000/svg">
</g>
<g xmlns="http://www.w3.org/2000/svg">
</g>
<g xmlns="http://www.w3.org/2000/svg">
</g>
<g xmlns="http://www.w3.org/2000/svg">
</g>
<g xmlns="http://www.w3.org/2000/svg">
</g>
<g xmlns="http://www.w3.org/2000/svg">
</g>
<g xmlns="http://www.w3.org/2000/svg">
</g>
<g xmlns="http://www.w3.org/2000/svg">
</g>
</g></svg>
