<svg width="60" height="60" viewBox="0 0 60 60" fill="none" xmlns="http://www.w3.org/2000/svg">
<path d="M15 0C12.9375 0 11.25 1.6875 11.25 3.75V56.25C11.25 58.3125 12.9375 60 15 60H52.5C54.5625 60 56.25 58.3125 56.25 56.25V15L41.25 0H15Z" fill="#E2E5E7"/>
<path d="M45 15H56.25L41.25 0V11.25C41.25 13.3125 42.9375 15 45 15Z" fill="#B0B7BD"/>
<path d="M56.25 26.25L45 15H56.25V26.25Z" fill="#CAD1D8"/>
<path d="M48.75 48.75C48.75 49.7813 47.9063 50.625 46.875 50.625H5.625C4.59375 50.625 3.75 49.7813 3.75 48.75V30C3.75 28.9687 4.59375 28.125 5.625 28.125H46.875C47.9063 28.125 48.75 28.9687 48.75 30V48.75Z" fill="#576D7E"/>
<path d="M15.5606 36.5006H12.9375C11.6325 36.5006 11.6325 34.5825 12.9375 34.5825H20.0287C21.3637 34.5825 21.3637 36.5006 20.0287 36.5006H17.5387V44.07C17.5387 45.3732 15.5587 45.405 15.5587 44.07V36.5006H15.5606Z" fill="white"/>
<path d="M26.2986 38.2237L28.9086 34.9556C29.6886 33.9375 31.2018 35.2406 30.3487 36.2156C29.4486 37.2806 28.5055 38.4356 27.6036 39.6169L30.6637 43.425C31.4868 44.55 29.8386 45.63 29.0286 44.52L26.2705 40.9819L23.5574 44.595C22.7924 45.6881 21.0974 44.46 21.9543 43.44L24.9655 39.6169C24.0224 38.4337 23.1074 37.2806 22.1924 36.2156C21.2474 35.0906 23.0024 33.9375 23.6905 34.9875L26.2986 38.2237Z" fill="white"/>
<path d="M34.9557 36.5006H32.3345C31.0295 36.5006 31.0295 34.5825 32.3345 34.5825H39.4238C40.7588 34.5825 40.7588 36.5006 39.4238 36.5006H36.9357V44.07C36.9357 45.3732 34.9557 45.405 34.9557 44.07V36.5006V36.5006Z" fill="white"/>
<path d="M46.875 50.625H11.25V52.5H46.875C47.9063 52.5 48.75 51.6563 48.75 50.625V48.75C48.75 49.7813 47.9063 50.625 46.875 50.625Z" fill="#CAD1D8"/>
</svg>
